<svg width="1751" height="1010" xmlns="http://www.w3.org/2000/svg"><g><path d="M-87.11250730790198,-20.599563801661134L-106.12059758976102,110.07598307915032L101.01857962086797,78.4843085333705Z" fill="#fcf8fc" stroke="#fcf8fc" fill-opacity="1" stroke-opacity="1"/><path d="M-87.11250730790198,-20.599563801661134L101.01857962086797,78.4843085333705L37.69128137268126,-80.88129370473325Z" fill="#faf6fb" stroke="#faf6fb" fill-opacity="1" stroke-opacity="1"/><path d="M37.69128137268126,-80.88129370473325L101.01857962086797,78.4843085333705L167.7406945824623,47.160454373806715Z" fill="#f4f1f8" stroke="#f4f1f8" fill-opacity="1" stroke-opacity="1"/><path d="M37.69128137268126,-80.88129370473325L167.7406945824623,47.160454373806715L281.4615668077022,-115.89195348322392Z" fill="#f0eff7" stroke="#f0eff7" fill-opacity="1" stroke-opacity="1"/><path d="M281.4615668077022,-115.89195348322392L167.7406945824623,47.160454373806715L410.701219746843,-42.2346717864275Z" fill="#e8e9f3" stroke="#e8e9f3" fill-opacity="1" stroke-opacity="1"/><path d="M281.4615668077022,-115.89195348322392L410.701219746843,-42.2346717864275L584.5657366141677,-32.343778191134334Z" fill="#dee4f0" stroke="#dee4f0" fill-opacity="1" stroke-opacity="1"/><path d="M281.4615668077022,-115.89195348322392L584.5657366141677,-32.343778191134334L732.5341031234711,-55.46497662551701Z" fill="#d6e0ee" stroke="#d6e0ee" fill-opacity="1" stroke-opacity="1"/><path d="M281.4615668077022,-115.89195348322392L732.5341031234711,-55.46497662551701L1327.3183200415224,-99.03377107344568Z" fill="#bed8e9" stroke="#bed8e9" fill-opacity="1" stroke-opacity="1"/><path d="M410.701219746843,-42.2346717864275L167.7406945824623,47.160454373806715L433.7625059299171,85.77442120760679Z" fill="#e4e6f2" stroke="#e4e6f2" fill-opacity="1" stroke-opacity="1"/><path d="M410.701219746843,-42.2346717864275L433.7625059299171,85.77442120760679L510.0599703658372,70.41692647151649Z" fill="#dbe2f0" stroke="#dbe2f0" fill-opacity="1" stroke-opacity="1"/><path d="M410.701219746843,-42.2346717864275L510.0599703658372,70.41692647151649L584.5657366141677,-32.343778191134334Z" fill="#d9e1ef" stroke="#d9e1ef" fill-opacity="1" stroke-opacity="1"/><path d="M584.5657366141677,-32.343778191134334L510.0599703658372,70.41692647151649L700.0309170875698,33.09835388325155Z" fill="#d1dded" stroke="#d1dded" fill-opacity="1" stroke-opacity="1"/><path d="M584.5657366141677,-32.343778191134334L700.0309170875698,33.09835388325155L732.5341031234711,-55.46497662551701Z" fill="#c9dbeb" stroke="#c9dbeb" fill-opacity="1" stroke-opacity="1"/><path d="M732.5341031234711,-55.46497662551701L700.0309170875698,33.09835388325155L796.914564203471,-38.31151423975825Z" fill="#c2d9ea" stroke="#c2d9ea" fill-opacity="1" stroke-opacity="1"/><path d="M732.5341031234711,-55.46497662551701L796.914564203471,-38.31151423975825L925.6626801006496,-37.084704330191016Z" fill="#b9d6e8" stroke="#b9d6e8" fill-opacity="1" stroke-opacity="1"/><path d="M732.5341031234711,-55.46497662551701L925.6626801006496,-37.084704330191016L1327.3183200415224,-99.03377107344568Z" fill="#a4cfdc" stroke="#a4cfdc" fill-opacity="1" stroke-opacity="1"/><path d="M796.914564203471,-38.31151423975825L700.0309170875698,33.09835388325155L776.1052380222827,114.58789880387485Z" fill="#bfd8ea" stroke="#bfd8ea" fill-opacity="1" stroke-opacity="1"/><path d="M796.914564203471,-38.31151423975825L776.1052380222827,114.58789880387485L925.6626801006496,-37.084704330191016Z" fill="#b7d6e8" stroke="#b7d6e8" fill-opacity="1" stroke-opacity="1"/><path d="M925.6626801006496,-37.084704330191016L776.1052380222827,114.58789880387485L998.6976235359907,47.362384647130966Z" fill="#afd3e5" stroke="#afd3e5" fill-opacity="1" stroke-opacity="1"/><path d="M925.6626801006496,-37.084704330191016L998.6976235359907,47.362384647130966L1080.2703007590026,37.476725578308105Z" fill="#a3cedc" stroke="#a3cedc" fill-opacity="1" stroke-opacity="1"/><path d="M925.6626801006496,-37.084704330191016L1080.2703007590026,37.476725578308105L1167.1747569646686,-29.7243694961071Z" fill="#9cccd6" stroke="#9cccd6" fill-opacity="1" stroke-opacity="1"/><path d="M925.6626801006496,-37.084704330191016L1167.1747569646686,-29.7243694961071L1327.3183200415224,-99.03377107344568Z" fill="#91c9cf" stroke="#91c9cf" fill-opacity="1" stroke-opacity="1"/><path d="M1167.1747569646686,-29.7243694961071L1080.2703007590026,37.476725578308105L1286.7932765744627,36.34083241224289Z" fill="#8dc7cb" stroke="#8dc7cb" fill-opacity="1" stroke-opacity="1"/><path d="M1167.1747569646686,-29.7243694961071L1286.7932765744627,36.34083241224289L1327.3183200415224,-99.03377107344568Z" fill="#89c2c2" stroke="#89c2c2" fill-opacity="1" stroke-opacity="1"/><path d="M1327.3183200415224,-99.03377107344568L1286.7932765744627,36.34083241224289L1434.5985525939614,32.30551332235336Z" fill="#85bdb8" stroke="#85bdb8" fill-opacity="1" stroke-opacity="1"/><path d="M1327.3183200415224,-99.03377107344568L1434.5985525939614,32.30551332235336L1475.2909391373396,-77.31936953030527Z" fill="#82b9b1" stroke="#82b9b1" fill-opacity="1" stroke-opacity="1"/><path d="M1327.3183200415224,-99.03377107344568L1475.2909391373396,-77.31936953030527L1730.358511582017,-68.95319438539445Z" fill="#80b3a7" stroke="#80b3a7" fill-opacity="1" stroke-opacity="1"/><path d="M1475.2909391373396,-77.31936953030527L1434.5985525939614,32.30551332235336L1573.3723316341639,-43.845221707597375Z" fill="#80b4a8" stroke="#80b4a8" fill-opacity="1" stroke-opacity="1"/><path d="M1475.2909391373396,-77.31936953030527L1573.3723316341639,-43.845221707597375L1730.358511582017,-68.95319438539445Z" fill="#80ad9e" stroke="#80ad9e" fill-opacity="1" stroke-opacity="1"/><path d="M1573.3723316341639,-43.845221707597375L1434.5985525939614,32.30551332235336L1554.1139034368098,134.58365488797426Z" fill="#7fb1a6" stroke="#7fb1a6" fill-opacity="1" stroke-opacity="1"/><path d="M1573.3723316341639,-43.845221707597375L1554.1139034368098,134.58365488797426L1727.2834811545908,71.54327656142414Z" fill="#7fab9b" stroke="#7fab9b" fill-opacity="1" stroke-opacity="1"/><path d="M1573.3723316341639,-43.845221707597375L1727.2834811545908,71.54327656142414L1730.358511582017,-68.95319438539445Z" fill="#80a894" stroke="#80a894" fill-opacity="1" stroke-opacity="1"/><path d="M1730.358511582017,-68.95319438539445L1727.2834811545908,71.54327656142414L1854.3877609167248,-56.45662763155997Z" fill="#80a38a" stroke="#80a38a" fill-opacity="1" stroke-opacity="1"/><path d="M1854.3877609167248,-56.45662763155997L1727.2834811545908,71.54327656142414L1842.0350860990584,97.41018142551184Z" fill="#7fa086" stroke="#7fa086" fill-opacity="1" stroke-opacity="1"/><path d="M1854.3877609167248,-56.45662763155997L1842.0350860990584,97.41018142551184L1865.7708353362978,173.71819384396076Z" fill="#7e9c81" stroke="#7e9c81" fill-opacity="1" stroke-opacity="1"/><path d="M1854.3877609167248,-56.45662763155997L1865.7708353362978,173.71819384396076L1932.3738520871848,617.9137489199638Z" fill="#719380" stroke="#719380" fill-opacity="1" stroke-opacity="1"/><path d="M-106.12059758976102,110.07598307915032L-105.10523742064834,481.7145132087171L-63.19890392012894,346.3399350922555Z" fill="#e6eefe" stroke="#e6eefe" fill-opacity="1" stroke-opacity="1"/><path d="M-106.12059758976102,110.07598307915032L-63.19890392012894,346.3399350922555L-37.90626833215356,177.60975589044392Z" fill="#f5f5fd" stroke="#f5f5fd" fill-opacity="1" stroke-opacity="1"/><path d="M-106.12059758976102,110.07598307915032L-37.90626833215356,177.60975589044392L101.01857962086797,78.4843085333705Z" fill="#f9f6fc" stroke="#f9f6fc" fill-opacity="1" stroke-opacity="1"/><path d="M101.01857962086797,78.4843085333705L-37.90626833215356,177.60975589044392L39.799527917057276,181.8884524796158Z" fill="#f6f3fa" stroke="#f6f3fa" fill-opacity="1" stroke-opacity="1"/><path d="M101.01857962086797,78.4843085333705L39.799527917057276,181.8884524796158L243.00125487148762,243.78415835089982Z" fill="#efeef8" stroke="#efeef8" fill-opacity="1" stroke-opacity="1"/><path d="M101.01857962086797,78.4843085333705L243.00125487148762,243.78415835089982L167.7406945824623,47.160454373806715Z" fill="#edecf6" stroke="#edecf6" fill-opacity="1" stroke-opacity="1"/><path d="M167.7406945824623,47.160454373806715L243.00125487148762,243.78415835089982L433.7625059299171,85.77442120760679Z" fill="#e6e7f3" stroke="#e6e7f3" fill-opacity="1" stroke-opacity="1"/><path d="M433.7625059299171,85.77442120760679L243.00125487148762,243.78415835089982L417.7574379276484,224.86075289547443Z" fill="#dce2f1" stroke="#dce2f1" fill-opacity="1" stroke-opacity="1"/><path d="M433.7625059299171,85.77442120760679L417.7574379276484,224.86075289547443L497.3193271737546,210.61083482578397Z" fill="#d8dff0" stroke="#d8dff0" fill-opacity="1" stroke-opacity="1"/><path d="M433.7625059299171,85.77442120760679L497.3193271737546,210.61083482578397L510.0599703658372,70.41692647151649Z" fill="#d8e0ef" stroke="#d8e0ef" fill-opacity="1" stroke-opacity="1"/><path d="M510.0599703658372,70.41692647151649L497.3193271737546,210.61083482578397L650.8126109931618,206.14725806750357Z" fill="#d1dcee" stroke="#d1dcee" fill-opacity="1" stroke-opacity="1"/><path d="M510.0599703658372,70.41692647151649L650.8126109931618,206.14725806750357L700.0309170875698,33.09835388325155Z" fill="#cddbec" stroke="#cddbec" fill-opacity="1" stroke-opacity="1"/><path d="M700.0309170875698,33.09835388325155L650.8126109931618,206.14725806750357L776.1052380222827,114.58789880387485Z" fill="#c3d8eb" stroke="#c3d8eb" fill-opacity="1" stroke-opacity="1"/><path d="M776.1052380222827,114.58789880387485L650.8126109931618,206.14725806750357L829.0801647026092,262.8184273838997Z" fill="#b9d3ea" stroke="#b9d3ea" fill-opacity="1" stroke-opacity="1"/><path d="M776.1052380222827,114.58789880387485L829.0801647026092,262.8184273838997L938.7489202804863,233.71942640282214Z" fill="#add0e8" stroke="#add0e8" fill-opacity="1" stroke-opacity="1"/><path d="M776.1052380222827,114.58789880387485L938.7489202804863,233.71942640282214L998.6976235359907,47.362384647130966Z" fill="#add1e5" stroke="#add1e5" fill-opacity="1" stroke-opacity="1"/><path d="M998.6976235359907,47.362384647130966L938.7489202804863,233.71942640282214L1069.2645603697747,229.8505722451955Z" fill="#9fccdc" stroke="#9fccdc" fill-opacity="1" stroke-opacity="1"/><path d="M998.6976235359907,47.362384647130966L1069.2645603697747,229.8505722451955L1080.2703007590026,37.476725578308105Z" fill="#9bcbd7" stroke="#9bcbd7" fill-opacity="1" stroke-opacity="1"/><path d="M1080.2703007590026,37.476725578308105L1069.2645603697747,229.8505722451955L1228.7148977257311,229.96033368632197Z" fill="#90c7d0" stroke="#90c7d0" fill-opacity="1" stroke-opacity="1"/><path d="M1080.2703007590026,37.476725578308105L1228.7148977257311,229.96033368632197L1286.7932765744627,36.34083241224289Z" fill="#8ac4c9" stroke="#8ac4c9" fill-opacity="1" stroke-opacity="1"/><path d="M1286.7932765744627,36.34083241224289L1228.7148977257311,229.96033368632197L1468.8813935872167,244.7478302847594Z" fill="#82bbbb" stroke="#82bbbb" fill-opacity="1" stroke-opacity="1"/><path d="M1286.7932765744627,36.34083241224289L1468.8813935872167,244.7478302847594L1434.5985525939614,32.30551332235336Z" fill="#81b8b3" stroke="#81b8b3" fill-opacity="1" stroke-opacity="1"/><path d="M1434.5985525939614,32.30551332235336L1468.8813935872167,244.7478302847594L1554.1139034368098,134.58365488797426Z" fill="#7db2a9" stroke="#7db2a9" fill-opacity="1" stroke-opacity="1"/><path d="M1554.1139034368098,134.58365488797426L1468.8813935872167,244.7478302847594L1584.3359877169132,180.51528554409742Z" fill="#7aada4" stroke="#7aada4" fill-opacity="1" stroke-opacity="1"/><path d="M1554.1139034368098,134.58365488797426L1584.3359877169132,180.51528554409742L1727.2834811545908,71.54327656142414Z" fill="#7da99a" stroke="#7da99a" fill-opacity="1" stroke-opacity="1"/><path d="M1727.2834811545908,71.54327656142414L1584.3359877169132,180.51528554409742L1741.2729048728943,218.23551803827286Z" fill="#7ca594" stroke="#7ca594" fill-opacity="1" stroke-opacity="1"/><path d="M1727.2834811545908,71.54327656142414L1741.2729048728943,218.23551803827286L1842.0350860990584,97.41018142551184Z" fill="#7da08a" stroke="#7da08a" fill-opacity="1" stroke-opacity="1"/><path d="M1842.0350860990584,97.41018142551184L1741.2729048728943,218.23551803827286L1865.7708353362978,173.71819384396076Z" fill="#7c9d85" stroke="#7c9d85" fill-opacity="1" stroke-opacity="1"/><path d="M-37.90626833215356,177.60975589044392L-63.19890392012894,346.3399350922555L39.799527917057276,181.8884524796158Z" fill="#eff0fc" stroke="#eff0fc" fill-opacity="1" stroke-opacity="1"/><path d="M39.799527917057276,181.8884524796158L-63.19890392012894,346.3399350922555L43.44790410250425,420.6231164652854Z" fill="#e1e9fb" stroke="#e1e9fb" fill-opacity="1" stroke-opacity="1"/><path d="M39.799527917057276,181.8884524796158L43.44790410250425,420.6231164652854L243.00125487148762,243.78415835089982Z" fill="#dfe7f8" stroke="#dfe7f8" fill-opacity="1" stroke-opacity="1"/><path d="M243.00125487148762,243.78415835089982L43.44790410250425,420.6231164652854L253.9446254633367,328.6869496386498Z" fill="#d4dff6" stroke="#d4dff6" fill-opacity="1" stroke-opacity="1"/><path d="M243.00125487148762,243.78415835089982L253.9446254633367,328.6869496386498L417.7574379276484,224.86075289547443Z" fill="#d5def3" stroke="#d5def3" fill-opacity="1" stroke-opacity="1"/><path d="M417.7574379276484,224.86075289547443L253.9446254633367,328.6869496386498L331.33731996640563,398.78706394694746Z" fill="#cbd9f2" stroke="#cbd9f2" fill-opacity="1" stroke-opacity="1"/><path d="M417.7574379276484,224.86075289547443L331.33731996640563,398.78706394694746L520.175917474553,434.2600463703275Z" fill="#bed4f0" stroke="#bed4f0" fill-opacity="1" stroke-opacity="1"/><path d="M417.7574379276484,224.86075289547443L520.175917474553,434.2600463703275L497.3193271737546,210.61083482578397Z" fill="#c5d6ef" stroke="#c5d6ef" fill-opacity="1" stroke-opacity="1"/><path d="M497.3193271737546,210.61083482578397L520.175917474553,434.2600463703275L639.5436017867178,390.84249302744865Z" fill="#b7d0ee" stroke="#b7d0ee" fill-opacity="1" stroke-opacity="1"/><path d="M497.3193271737546,210.61083482578397L639.5436017867178,390.84249302744865L650.8126109931618,206.14725806750357Z" fill="#bfd4ed" stroke="#bfd4ed" fill-opacity="1" stroke-opacity="1"/><path d="M650.8126109931618,206.14725806750357L639.5436017867178,390.84249302744865L829.0801647026092,262.8184273838997Z" fill="#b0cfeb" stroke="#b0cfeb" fill-opacity="1" stroke-opacity="1"/><path d="M829.0801647026092,262.8184273838997L639.5436017867178,390.84249302744865L877.9210780654103,430.725498246029Z" fill="#9bc6e9" stroke="#9bc6e9" fill-opacity="1" stroke-opacity="1"/><path d="M829.0801647026092,262.8184273838997L877.9210780654103,430.725498246029L940.0405025761575,337.20969300717115Z" fill="#94c4e7" stroke="#94c4e7" fill-opacity="1" stroke-opacity="1"/><path d="M829.0801647026092,262.8184273838997L940.0405025761575,337.20969300717115L938.7489202804863,233.71942640282214Z" fill="#9cc8e5" stroke="#9cc8e5" fill-opacity="1" stroke-opacity="1"/><path d="M938.7489202804863,233.71942640282214L940.0405025761575,337.20969300717115L1069.2645603697747,229.8505722451955Z" fill="#93c6dd" stroke="#93c6dd" fill-opacity="1" stroke-opacity="1"/><path d="M1069.2645603697747,229.8505722451955L940.0405025761575,337.20969300717115L1174.5229640230536,389.58133824169636Z" fill="#81bfd6" stroke="#81bfd6" fill-opacity="1" stroke-opacity="1"/><path d="M1069.2645603697747,229.8505722451955L1174.5229640230536,389.58133824169636L1228.7148977257311,229.96033368632197Z" fill="#7bbdcd" stroke="#7bbdcd" fill-opacity="1" stroke-opacity="1"/><path d="M1228.7148977257311,229.96033368632197L1174.5229640230536,389.58133824169636L1218.458569161594,386.12849151715636Z" fill="#6fb6c8" stroke="#6fb6c8" fill-opacity="1" stroke-opacity="1"/><path d="M1228.7148977257311,229.96033368632197L1218.458569161594,386.12849151715636L1468.8813935872167,244.7478302847594Z" fill="#72b4bd" stroke="#72b4bd" fill-opacity="1" stroke-opacity="1"/><path d="M1468.8813935872167,244.7478302847594L1218.458569161594,386.12849151715636L1475.4708551242948,421.4535413123667Z" fill="#64aab4" stroke="#64aab4" fill-opacity="1" stroke-opacity="1"/><path d="M1468.8813935872167,244.7478302847594L1475.4708551242948,421.4535413123667L1543.6783603113145,337.3845024034381Z" fill="#64a4a8" stroke="#64a4a8" fill-opacity="1" stroke-opacity="1"/><path d="M1468.8813935872167,244.7478302847594L1543.6783603113145,337.3845024034381L1584.3359877169132,180.51528554409742Z" fill="#6fa8a4" stroke="#6fa8a4" fill-opacity="1" stroke-opacity="1"/><path d="M1584.3359877169132,180.51528554409742L1543.6783603113145,337.3845024034381L1714.1295289993286,335.9751554299146Z" fill="#6ba19b" stroke="#6ba19b" fill-opacity="1" stroke-opacity="1"/><path d="M1584.3359877169132,180.51528554409742L1714.1295289993286,335.9751554299146L1741.2729048728943,218.23551803827286Z" fill="#71a094" stroke="#71a094" fill-opacity="1" stroke-opacity="1"/><path d="M1741.2729048728943,218.23551803827286L1714.1295289993286,335.9751554299146L1819.966561384499,341.28364864736795Z" fill="#69978b" stroke="#69978b" fill-opacity="1" stroke-opacity="1"/><path d="M1741.2729048728943,218.23551803827286L1819.966561384499,341.28364864736795L1865.7708353362978,173.71819384396076Z" fill="#719886" stroke="#719886" fill-opacity="1" stroke-opacity="1"/><path d="M1865.7708353362978,173.71819384396076L1819.966561384499,341.28364864736795L1932.3738520871848,617.9137489199638Z" fill="#5a8a7f" stroke="#5a8a7f" fill-opacity="1" stroke-opacity="1"/><path d="M-63.19890392012894,346.3399350922555L-105.10523742064834,481.7145132087171L43.44790410250425,420.6231164652854Z" fill="#cfe5fa" stroke="#cfe5fa" fill-opacity="1" stroke-opacity="1"/><path d="M43.44790410250425,420.6231164652854L-105.10523742064834,481.7145132087171L35.83093386143446,577.6785651315004Z" fill="#bcdef8" stroke="#bcdef8" fill-opacity="1" stroke-opacity="1"/><path d="M43.44790410250425,420.6231164652854L35.83093386143446,577.6785651315004L168.81745610386133,504.686730382964Z" fill="#b4d8f5" stroke="#b4d8f5" fill-opacity="1" stroke-opacity="1"/><path d="M43.44790410250425,420.6231164652854L168.81745610386133,504.686730382964L253.9446254633367,328.6869496386498Z" fill="#c2daf5" stroke="#c2daf5" fill-opacity="1" stroke-opacity="1"/><path d="M253.9446254633367,328.6869496386498L168.81745610386133,504.686730382964L331.33731996640563,398.78706394694746Z" fill="#bdd6f2" stroke="#bdd6f2" fill-opacity="1" stroke-opacity="1"/><path d="M331.33731996640563,398.78706394694746L168.81745610386133,504.686730382964L343.44708882272243,539.49188307859Z" fill="#accff0" stroke="#accff0" fill-opacity="1" stroke-opacity="1"/><path d="M331.33731996640563,398.78706394694746L343.44708882272243,539.49188307859L520.175917474553,434.2600463703275Z" fill="#a9cdee" stroke="#a9cdee" fill-opacity="1" stroke-opacity="1"/><path d="M520.175917474553,434.2600463703275L343.44708882272243,539.49188307859L486.3670173101127,557.2341575659811Z" fill="#99c7eb" stroke="#99c7eb" fill-opacity="1" stroke-opacity="1"/><path d="M520.175917474553,434.2600463703275L486.3670173101127,557.2341575659811L730.7694251742214,567.2860347758979Z" fill="#8dc2e6" stroke="#8dc2e6" fill-opacity="1" stroke-opacity="1"/><path d="M520.175917474553,434.2600463703275L730.7694251742214,567.2860347758979L639.5436017867178,390.84249302744865Z" fill="#95c5e9" stroke="#95c5e9" fill-opacity="1" stroke-opacity="1"/><path d="M639.5436017867178,390.84249302744865L730.7694251742214,567.2860347758979L877.9210780654103,430.725498246029Z" fill="#88c1e7" stroke="#88c1e7" fill-opacity="1" stroke-opacity="1"/><path d="M877.9210780654103,430.725498246029L730.7694251742214,567.2860347758979L842.786400988698,579.4488592073321Z" fill="#72b9e0" stroke="#72b9e0" fill-opacity="1" stroke-opacity="1"/><path d="M877.9210780654103,430.725498246029L842.786400988698,579.4488592073321L1009.416601806879,529.6871413104236Z" fill="#6bb7df" stroke="#6bb7df" fill-opacity="1" stroke-opacity="1"/><path d="M877.9210780654103,430.725498246029L1009.416601806879,529.6871413104236L940.0405025761575,337.20969300717115Z" fill="#79bbdf" stroke="#79bbdf" fill-opacity="1" stroke-opacity="1"/><path d="M940.0405025761575,337.20969300717115L1009.416601806879,529.6871413104236L1174.5229640230536,389.58133824169636Z" fill="#6fb8d6" stroke="#6fb8d6" fill-opacity="1" stroke-opacity="1"/><path d="M1174.5229640230536,389.58133824169636L1009.416601806879,529.6871413104236L1092.5538692437112,571.9970517139882Z" fill="#57b0cf" stroke="#57b0cf" fill-opacity="1" stroke-opacity="1"/><path d="M1174.5229640230536,389.58133824169636L1092.5538692437112,571.9970517139882L1317.8421839978546,511.83358521200716Z" fill="#4dacc6" stroke="#4dacc6" fill-opacity="1" stroke-opacity="1"/><path d="M1174.5229640230536,389.58133824169636L1317.8421839978546,511.83358521200716L1218.458569161594,386.12849151715636Z" fill="#5aaec3" stroke="#5aaec3" fill-opacity="1" stroke-opacity="1"/><path d="M1218.458569161594,386.12849151715636L1317.8421839978546,511.83358521200716L1475.4708551242948,421.4535413123667Z" fill="#52a7b7" stroke="#52a7b7" fill-opacity="1" stroke-opacity="1"/><path d="M1475.4708551242948,421.4535413123667L1317.8421839978546,511.83358521200716L1450.9965915419161,473.5265549272299Z" fill="#48a0ae" stroke="#48a0ae" fill-opacity="1" stroke-opacity="1"/><path d="M1475.4708551242948,421.4535413123667L1450.9965915419161,473.5265549272299L1563.4416634496301,501.5797486156225Z" fill="#479ba5" stroke="#479ba5" fill-opacity="1" stroke-opacity="1"/><path d="M1475.4708551242948,421.4535413123667L1563.4416634496301,501.5797486156225L1543.6783603113145,337.3845024034381Z" fill="#519da3" stroke="#519da3" fill-opacity="1" stroke-opacity="1"/><path d="M1543.6783603113145,337.3845024034381L1563.4416634496301,501.5797486156225L1686.199854305014,468.44878180883825Z" fill="#4d979b" stroke="#4d979b" fill-opacity="1" stroke-opacity="1"/><path d="M1543.6783603113145,337.3845024034381L1686.199854305014,468.44878180883825L1714.1295289993286,335.9751554299146Z" fill="#599897" stroke="#599897" fill-opacity="1" stroke-opacity="1"/><path d="M1714.1295289993286,335.9751554299146L1686.199854305014,468.44878180883825L1819.966561384499,341.28364864736795Z" fill="#59928c" stroke="#59928c" fill-opacity="1" stroke-opacity="1"/><path d="M1819.966561384499,341.28364864736795L1686.199854305014,468.44878180883825L1823.9488967321813,539.4231047574431Z" fill="#4a8b87" stroke="#4a8b87" fill-opacity="1" stroke-opacity="1"/><path d="M1819.966561384499,341.28364864736795L1823.9488967321813,539.4231047574431L1932.3738520871848,617.9137489199638Z" fill="#3f837c" stroke="#3f837c" fill-opacity="1" stroke-opacity="1"/><path d="M-105.10523742064834,481.7145132087171L-100.27054754085839,1111.9566770084202L-82.52741617150605,978.401897046715Z" fill="#91bbb0" stroke="#91bbb0" fill-opacity="1" stroke-opacity="1"/><path d="M-105.10523742064834,481.7145132087171L-82.52741617150605,978.401897046715L-70.50591294653714,723.7985591590405Z" fill="#91cbcd" stroke="#91cbcd" fill-opacity="1" stroke-opacity="1"/><path d="M-105.10523742064834,481.7145132087171L-70.50591294653714,723.7985591590405L35.83093386143446,577.6785651315004Z" fill="#a4d7e7" stroke="#a4d7e7" fill-opacity="1" stroke-opacity="1"/><path d="M35.83093386143446,577.6785651315004L-70.50591294653714,723.7985591590405L51.66281534358859,718.6768821906298Z" fill="#8ccdd7" stroke="#8ccdd7" fill-opacity="1" stroke-opacity="1"/><path d="M35.83093386143446,577.6785651315004L51.66281534358859,718.6768821906298L209.46466913446784,725.4608243331313Z" fill="#86c9d4" stroke="#86c9d4" fill-opacity="1" stroke-opacity="1"/><path d="M35.83093386143446,577.6785651315004L209.46466913446784,725.4608243331313L168.81745610386133,504.686730382964Z" fill="#96cde0" stroke="#96cde0" fill-opacity="1" stroke-opacity="1"/><path d="M168.81745610386133,504.686730382964L209.46466913446784,725.4608243331313L343.44708882272243,539.49188307859Z" fill="#93c8e0" stroke="#93c8e0" fill-opacity="1" stroke-opacity="1"/><path d="M343.44708882272243,539.49188307859L209.46466913446784,725.4608243331313L366.72385334037244,671.7419114336371Z" fill="#80c1d3" stroke="#80c1d3" fill-opacity="1" stroke-opacity="1"/><path d="M343.44708882272243,539.49188307859L366.72385334037244,671.7419114336371L486.3670173101127,557.2341575659811Z" fill="#88c2dc" stroke="#88c2dc" fill-opacity="1" stroke-opacity="1"/><path d="M486.3670173101127,557.2341575659811L366.72385334037244,671.7419114336371L502.64737643301487,705.0293342303485Z" fill="#76bcd1" stroke="#76bcd1" fill-opacity="1" stroke-opacity="1"/><path d="M486.3670173101127,557.2341575659811L502.64737643301487,705.0293342303485L650.8382802084088,656.9551424123347Z" fill="#70b9d0" stroke="#70b9d0" fill-opacity="1" stroke-opacity="1"/><path d="M486.3670173101127,557.2341575659811L650.8382802084088,656.9551424123347L730.7694251742214,567.2860347758979Z" fill="#76bad7" stroke="#76bad7" fill-opacity="1" stroke-opacity="1"/><path d="M730.7694251742214,567.2860347758979L650.8382802084088,656.9551424123347L857.9055760614574,622.452458627522Z" fill="#62b4d0" stroke="#62b4d0" fill-opacity="1" stroke-opacity="1"/><path d="M730.7694251742214,567.2860347758979L857.9055760614574,622.452458627522L842.786400988698,579.4488592073321Z" fill="#62b4d4" stroke="#62b4d4" fill-opacity="1" stroke-opacity="1"/><path d="M842.786400988698,579.4488592073321L857.9055760614574,622.452458627522L1009.416601806879,529.6871413104236Z" fill="#5bb2d3" stroke="#5bb2d3" fill-opacity="1" stroke-opacity="1"/><path d="M1009.416601806879,529.6871413104236L857.9055760614574,622.452458627522L918.4735232591629,728.5413906164467Z" fill="#4aacc7" stroke="#4aacc7" fill-opacity="1" stroke-opacity="1"/><path d="M1009.416601806879,529.6871413104236L918.4735232591629,728.5413906164467L1103.102201577276,618.6642857920378Z" fill="#40a9bf" stroke="#40a9bf" fill-opacity="1" stroke-opacity="1"/><path d="M1009.416601806879,529.6871413104236L1103.102201577276,618.6642857920378L1092.5538692437112,571.9970517139882Z" fill="#46abc4" stroke="#46abc4" fill-opacity="1" stroke-opacity="1"/><path d="M1092.5538692437112,571.9970517139882L1103.102201577276,618.6642857920378L1216.8079187627882,639.9201277457178Z" fill="#34a5b7" stroke="#34a5b7" fill-opacity="1" stroke-opacity="1"/><path d="M1092.5538692437112,571.9970517139882L1216.8079187627882,639.9201277457178L1317.8421839978546,511.83358521200716Z" fill="#38a4b6" stroke="#38a4b6" fill-opacity="1" stroke-opacity="1"/><path d="M1317.8421839978546,511.83358521200716L1216.8079187627882,639.9201277457178L1427.1608938649297,683.4053643979132Z" fill="#299aa3" stroke="#299aa3" fill-opacity="1" stroke-opacity="1"/><path d="M1317.8421839978546,511.83358521200716L1427.1608938649297,683.4053643979132L1450.9965915419161,473.5265549272299Z" fill="#349aa5" stroke="#349aa5" fill-opacity="1" stroke-opacity="1"/><path d="M1450.9965915419161,473.5265549272299L1427.1608938649297,683.4053643979132L1568.5092184692621,642.4060868471861Z" fill="#259193" stroke="#259193" fill-opacity="1" stroke-opacity="1"/><path d="M1450.9965915419161,473.5265549272299L1568.5092184692621,642.4060868471861L1563.4416634496301,501.5797486156225Z" fill="#35949a" stroke="#35949a" fill-opacity="1" stroke-opacity="1"/><path d="M1563.4416634496301,501.5797486156225L1568.5092184692621,642.4060868471861L1686.199854305014,468.44878180883825Z" fill="#358f92" stroke="#358f92" fill-opacity="1" stroke-opacity="1"/><path d="M1686.199854305014,468.44878180883825L1568.5092184692621,642.4060868471861L1698.7119851913303,673.7550737801939Z" fill="#268782" stroke="#268782" fill-opacity="1" stroke-opacity="1"/><path d="M1686.199854305014,468.44878180883825L1698.7119851913303,673.7550737801939L1823.9488967321813,539.4231047574431Z" fill="#2f857f" stroke="#2f857f" fill-opacity="1" stroke-opacity="1"/><path d="M1823.9488967321813,539.4231047574431L1698.7119851913303,673.7550737801939L1932.3738520871848,617.9137489199638Z" fill="#227c6c" stroke="#227c6c" fill-opacity="1" stroke-opacity="1"/><path d="M-70.50591294653714,723.7985591590405L-82.52741617150605,978.401897046715L-29.222801215946674,777.3689643200487Z" fill="#91bdb6" stroke="#91bdb6" fill-opacity="1" stroke-opacity="1"/><path d="M-70.50591294653714,723.7985591590405L-29.222801215946674,777.3689643200487L51.66281534358859,718.6768821906298Z" fill="#8ec6c8" stroke="#8ec6c8" fill-opacity="1" stroke-opacity="1"/><path d="M51.66281534358859,718.6768821906298L-29.222801215946674,777.3689643200487L99.10850585438311,827.8297223802656Z" fill="#8abfbf" stroke="#8abfbf" fill-opacity="1" stroke-opacity="1"/><path d="M51.66281534358859,718.6768821906298L99.10850585438311,827.8297223802656L209.46466913446784,725.4608243331313Z" fill="#85bdc0" stroke="#85bdc0" fill-opacity="1" stroke-opacity="1"/><path d="M209.46466913446784,725.4608243331313L99.10850585438311,827.8297223802656L222.39289197139442,837.0992222428322Z" fill="#81b5b6" stroke="#81b5b6" fill-opacity="1" stroke-opacity="1"/><path d="M209.46466913446784,725.4608243331313L222.39289197139442,837.0992222428322L413.7064763903618,818.5338628292084Z" fill="#7ab0b4" stroke="#7ab0b4" fill-opacity="1" stroke-opacity="1"/><path d="M209.46466913446784,725.4608243331313L413.7064763903618,818.5338628292084L366.72385334037244,671.7419114336371Z" fill="#77b5bf" stroke="#77b5bf" fill-opacity="1" stroke-opacity="1"/><path d="M366.72385334037244,671.7419114336371L413.7064763903618,818.5338628292084L502.64737643301487,705.0293342303485Z" fill="#70b3bf" stroke="#70b3bf" fill-opacity="1" stroke-opacity="1"/><path d="M502.64737643301487,705.0293342303485L413.7064763903618,818.5338628292084L575.8197071403265,777.1895872615278Z" fill="#6bacb5" stroke="#6bacb5" fill-opacity="1" stroke-opacity="1"/><path d="M502.64737643301487,705.0293342303485L575.8197071403265,777.1895872615278L650.8382802084088,656.9551424123347Z" fill="#65b0c0" stroke="#65b0c0" fill-opacity="1" stroke-opacity="1"/><path d="M650.8382802084088,656.9551424123347L575.8197071403265,777.1895872615278L661.5454220585525,852.6789302844554Z" fill="#60a8b4" stroke="#60a8b4" fill-opacity="1" stroke-opacity="1"/><path d="M650.8382802084088,656.9551424123347L661.5454220585525,852.6789302844554L802.1393177378923,835.5508884228766Z" fill="#58a3ae" stroke="#58a3ae" fill-opacity="1" stroke-opacity="1"/><path d="M650.8382802084088,656.9551424123347L802.1393177378923,835.5508884228766L857.9055760614574,622.452458627522Z" fill="#51aabe" stroke="#51aabe" fill-opacity="1" stroke-opacity="1"/><path d="M857.9055760614574,622.452458627522L802.1393177378923,835.5508884228766L918.4735232591629,728.5413906164467Z" fill="#47a4b7" stroke="#47a4b7" fill-opacity="1" stroke-opacity="1"/><path d="M918.4735232591629,728.5413906164467L802.1393177378923,835.5508884228766L935.3192718420178,797.6671513170004Z" fill="#449ca8" stroke="#449ca8" fill-opacity="1" stroke-opacity="1"/><path d="M918.4735232591629,728.5413906164467L935.3192718420178,797.6671513170004L1096.7699761502445,845.3695444855839Z" fill="#37979e" stroke="#37979e" fill-opacity="1" stroke-opacity="1"/><path d="M918.4735232591629,728.5413906164467L1096.7699761502445,845.3695444855839L1103.102201577276,618.6642857920378Z" fill="#309ca7" stroke="#309ca7" fill-opacity="1" stroke-opacity="1"/><path d="M1103.102201577276,618.6642857920378L1096.7699761502445,845.3695444855839L1216.8079187627882,639.9201277457178Z" fill="#239ca4" stroke="#239ca4" fill-opacity="1" stroke-opacity="1"/><path d="M1216.8079187627882,639.9201277457178L1096.7699761502445,845.3695444855839L1240.2423874195665,857.8254117351025Z" fill="#1f8f8d" stroke="#1f8f8d" fill-opacity="1" stroke-opacity="1"/><path d="M1216.8079187627882,639.9201277457178L1240.2423874195665,857.8254117351025L1369.0619624499232,842.6401818171144Z" fill="#1b8a84" stroke="#1b8a84" fill-opacity="1" stroke-opacity="1"/><path d="M1216.8079187627882,639.9201277457178L1369.0619624499232,842.6401818171144L1427.1608938649297,683.4053643979132Z" fill="#188e8a" stroke="#188e8a" fill-opacity="1" stroke-opacity="1"/><path d="M1427.1608938649297,683.4053643979132L1369.0619624499232,842.6401818171144L1565.3531736508012,831.9024217687547Z" fill="#127e6f" stroke="#127e6f" fill-opacity="1" stroke-opacity="1"/><path d="M1427.1608938649297,683.4053643979132L1565.3531736508012,831.9024217687547L1568.5092184692621,642.4060868471861Z" fill="#128277" stroke="#128277" fill-opacity="1" stroke-opacity="1"/><path d="M1568.5092184692621,642.4060868471861L1565.3531736508012,831.9024217687547L1698.7119851913303,673.7550737801939Z" fill="#127d6e" stroke="#127d6e" fill-opacity="1" stroke-opacity="1"/><path d="M1698.7119851913303,673.7550737801939L1565.3531736508012,831.9024217687547L1725.4923838377,810.6291893497109Z" fill="#12735b" stroke="#12735b" fill-opacity="1" stroke-opacity="1"/><path d="M1698.7119851913303,673.7550737801939L1725.4923838377,810.6291893497109L1932.3738520871848,617.9137489199638Z" fill="#12755e" stroke="#12755e" fill-opacity="1" stroke-opacity="1"/><path d="M1932.3738520871848,617.9137489199638L1725.4923838377,810.6291893497109L1833.2565231341869,882.5809031445533Z" fill="#126949" stroke="#126949" fill-opacity="1" stroke-opacity="1"/><path d="M1932.3738520871848,617.9137489199638L1833.2565231341869,882.5809031445533L1931.6663917712867,1114.8584042396396Z" fill="#12582e" stroke="#12582e" fill-opacity="1" stroke-opacity="1"/><path d="M-29.222801215946674,777.3689643200487L-82.52741617150605,978.401897046715L62.737929448485374,958.6776635516435Z" fill="#8eb1a3" stroke="#8eb1a3" fill-opacity="1" stroke-opacity="1"/><path d="M-29.222801215946674,777.3689643200487L62.737929448485374,958.6776635516435L99.10850585438311,827.8297223802656Z" fill="#8ab4ac" stroke="#8ab4ac" fill-opacity="1" stroke-opacity="1"/><path d="M99.10850585438311,827.8297223802656L62.737929448485374,958.6776635516435L222.39289197139442,837.0992222428322Z" fill="#84aea6" stroke="#84aea6" fill-opacity="1" stroke-opacity="1"/><path d="M222.39289197139442,837.0992222428322L62.737929448485374,958.6776635516435L272.55254711955786,993.8323591835797Z" fill="#81a397" stroke="#81a397" fill-opacity="1" stroke-opacity="1"/><path d="M222.39289197139442,837.0992222428322L272.55254711955786,993.8323591835797L413.7064763903618,818.5338628292084Z" fill="#79a39f" stroke="#79a39f" fill-opacity="1" stroke-opacity="1"/><path d="M413.7064763903618,818.5338628292084L272.55254711955786,993.8323591835797L335.92748573049903,1018.3180280216038Z" fill="#769b90" stroke="#769b90" fill-opacity="1" stroke-opacity="1"/><path d="M413.7064763903618,818.5338628292084L335.92748573049903,1018.3180280216038L547.1401708479971,1034.9112048000097Z" fill="#70958c" stroke="#70958c" fill-opacity="1" stroke-opacity="1"/><path d="M413.7064763903618,818.5338628292084L547.1401708479971,1034.9112048000097L575.8197071403265,777.1895872615278Z" fill="#6a9d9c" stroke="#6a9d9c" fill-opacity="1" stroke-opacity="1"/><path d="M575.8197071403265,777.1895872615278L547.1401708479971,1034.9112048000097L661.5454220585525,852.6789302844554Z" fill="#649998" stroke="#649998" fill-opacity="1" stroke-opacity="1"/><path d="M661.5454220585525,852.6789302844554L547.1401708479971,1034.9112048000097L678.4183993097395,922.670815307647Z" fill="#60928c" stroke="#60928c" fill-opacity="1" stroke-opacity="1"/><path d="M661.5454220585525,852.6789302844554L678.4183993097395,922.670815307647L802.1393177378923,835.5508884228766Z" fill="#57979a" stroke="#57979a" fill-opacity="1" stroke-opacity="1"/><path d="M802.1393177378923,835.5508884228766L678.4183993097395,922.670815307647L781.8569031637162,1019.4268431700766Z" fill="#528e8c" stroke="#528e8c" fill-opacity="1" stroke-opacity="1"/><path d="M802.1393177378923,835.5508884228766L781.8569031637162,1019.4268431700766L958.6172526329756,1014.2171406839043Z" fill="#488883" stroke="#488883" fill-opacity="1" stroke-opacity="1"/><path d="M802.1393177378923,835.5508884228766L958.6172526329756,1014.2171406839043L935.3192718420178,797.6671513170004Z" fill="#428f92" stroke="#428f92" fill-opacity="1" stroke-opacity="1"/><path d="M935.3192718420178,797.6671513170004L958.6172526329756,1014.2171406839043L1085.6146988924593,942.5354922562838Z" fill="#368680" stroke="#368680" fill-opacity="1" stroke-opacity="1"/><path d="M935.3192718420178,797.6671513170004L1085.6146988924593,942.5354922562838L1096.7699761502445,845.3695444855839Z" fill="#308c89" stroke="#308c89" fill-opacity="1" stroke-opacity="1"/><path d="M1096.7699761502445,845.3695444855839L1085.6146988924593,942.5354922562838L1215.1208112481982,937.5046069454402Z" fill="#248276" stroke="#248276" fill-opacity="1" stroke-opacity="1"/><path d="M1096.7699761502445,845.3695444855839L1215.1208112481982,937.5046069454402L1240.2423874195665,857.8254117351025Z" fill="#1f8377" stroke="#1f8377" fill-opacity="1" stroke-opacity="1"/><path d="M1240.2423874195665,857.8254117351025L1215.1208112481982,937.5046069454402L1369.0619624499232,842.6401818171144Z" fill="#1b7d6d" stroke="#1b7d6d" fill-opacity="1" stroke-opacity="1"/><path d="M1369.0619624499232,842.6401818171144L1215.1208112481982,937.5046069454402L1295.9387853741646,1072.285592313856Z" fill="#1a735b" stroke="#1a735b" fill-opacity="1" stroke-opacity="1"/><path d="M1369.0619624499232,842.6401818171144L1295.9387853741646,1072.285592313856L1454.4521401170641,933.6154201347381Z" fill="#166e53" stroke="#166e53" fill-opacity="1" stroke-opacity="1"/><path d="M1369.0619624499232,842.6401818171144L1454.4521401170641,933.6154201347381L1565.3531736508012,831.9024217687547Z" fill="#12735b" stroke="#12735b" fill-opacity="1" stroke-opacity="1"/><path d="M1565.3531736508012,831.9024217687547L1454.4521401170641,933.6154201347381L1602.7359712310135,1021.5768899023533Z" fill="#126745" stroke="#126745" fill-opacity="1" stroke-opacity="1"/><path d="M1565.3531736508012,831.9024217687547L1602.7359712310135,1021.5768899023533L1682.542379675433,960.6186968833208Z" fill="#12613a" stroke="#12613a" fill-opacity="1" stroke-opacity="1"/><path d="M1565.3531736508012,831.9024217687547L1682.542379675433,960.6186968833208L1725.4923838377,810.6291893497109Z" fill="#126746" stroke="#126746" fill-opacity="1" stroke-opacity="1"/><path d="M1725.4923838377,810.6291893497109L1682.542379675433,960.6186968833208L1833.2565231341869,882.5809031445533Z" fill="#125f39" stroke="#125f39" fill-opacity="1" stroke-opacity="1"/><path d="M1833.2565231341869,882.5809031445533L1682.542379675433,960.6186968833208L1860.5279367696494,1008.8718955591321Z" fill="#125425" stroke="#125425" fill-opacity="1" stroke-opacity="1"/><path d="M1833.2565231341869,882.5809031445533L1860.5279367696494,1008.8718955591321L1931.6663917712867,1114.8584042396396Z" fill="#124911" stroke="#124911" fill-opacity="1" stroke-opacity="1"/><path d="M-82.52741617150605,978.401897046715L-100.27054754085839,1111.9566770084202L43.748612590134144,1142.231199676171Z" fill="#909d7d" stroke="#909d7d" fill-opacity="1" stroke-opacity="1"/><path d="M-82.52741617150605,978.401897046715L43.748612590134144,1142.231199676171L62.737929448485374,958.6776635516435Z" fill="#8ca087" stroke="#8ca087" fill-opacity="1" stroke-opacity="1"/><path d="M62.737929448485374,958.6776635516435L43.748612590134144,1142.231199676171L200.91050983406603,1088.283258927986Z" fill="#86967c" stroke="#86967c" fill-opacity="1" stroke-opacity="1"/><path d="M62.737929448485374,958.6776635516435L200.91050983406603,1088.283258927986L272.55254711955786,993.8323591835797Z" fill="#819985" stroke="#819985" fill-opacity="1" stroke-opacity="1"/><path d="M272.55254711955786,993.8323591835797L200.91050983406603,1088.283258927986L335.92748573049903,1018.3180280216038Z" fill="#7b927d" stroke="#7b927d" fill-opacity="1" stroke-opacity="1"/><path d="M335.92748573049903,1018.3180280216038L200.91050983406603,1088.283258927986L354.4478486292064,1155.7626116741449Z" fill="#798a73" stroke="#798a73" fill-opacity="1" stroke-opacity="1"/><path d="M335.92748573049903,1018.3180280216038L354.4478486292064,1155.7626116741449L547.1401708479971,1034.9112048000097Z" fill="#718872" stroke="#718872" fill-opacity="1" stroke-opacity="1"/><path d="M547.1401708479971,1034.9112048000097L354.4478486292064,1155.7626116741449L564.8851029016078,1071.2447953037918Z" fill="#6c8370" stroke="#6c8370" fill-opacity="1" stroke-opacity="1"/><path d="M547.1401708479971,1034.9112048000097L564.8851029016078,1071.2447953037918L678.4183993097395,922.670815307647Z" fill="#63897c" stroke="#63897c" fill-opacity="1" stroke-opacity="1"/><path d="M678.4183993097395,922.670815307647L564.8851029016078,1071.2447953037918L617.571709798649,1122.9846333526075Z" fill="#618575" stroke="#618575" fill-opacity="1" stroke-opacity="1"/><path d="M678.4183993097395,922.670815307647L617.571709798649,1122.9846333526075L781.8569031637162,1019.4268431700766Z" fill="#598578" stroke="#598578" fill-opacity="1" stroke-opacity="1"/><path d="M781.8569031637162,1019.4268431700766L617.571709798649,1122.9846333526075L827.5089477840811,1139.8095367010683Z" fill="#547a6a" stroke="#547a6a" fill-opacity="1" stroke-opacity="1"/><path d="M781.8569031637162,1019.4268431700766L827.5089477840811,1139.8095367010683L958.6172526329756,1014.2171406839043Z" fill="#477a6c" stroke="#477a6c" fill-opacity="1" stroke-opacity="1"/><path d="M958.6172526329756,1014.2171406839043L827.5089477840811,1139.8095367010683L974.248368870467,1074.2663145437837Z" fill="#407564" stroke="#407564" fill-opacity="1" stroke-opacity="1"/><path d="M958.6172526329756,1014.2171406839043L974.248368870467,1074.2663145437837L1085.6146988924593,942.5354922562838Z" fill="#347a6b" stroke="#347a6b" fill-opacity="1" stroke-opacity="1"/><path d="M1085.6146988924593,942.5354922562838L974.248368870467,1074.2663145437837L1183.3640962466598,1155.3595239669085Z" fill="#2b7159" stroke="#2b7159" fill-opacity="1" stroke-opacity="1"/><path d="M1085.6146988924593,942.5354922562838L1183.3640962466598,1155.3595239669085L1215.1208112481982,937.5046069454402Z" fill="#21745c" stroke="#21745c" fill-opacity="1" stroke-opacity="1"/><path d="M1215.1208112481982,937.5046069454402L1183.3640962466598,1155.3595239669085L1295.9387853741646,1072.285592313856Z" fill="#1d694b" stroke="#1d694b" fill-opacity="1" stroke-opacity="1"/><path d="M1454.4521401170641,933.6154201347381L1295.9387853741646,1072.285592313856L1406.9226170517504,1147.684822306037Z" fill="#16603a" stroke="#16603a" fill-opacity="1" stroke-opacity="1"/><path d="M1454.4521401170641,933.6154201347381L1406.9226170517504,1147.684822306037L1602.7359712310135,1021.5768899023533Z" fill="#125c33" stroke="#125c33" fill-opacity="1" stroke-opacity="1"/><path d="M1602.7359712310135,1021.5768899023533L1406.9226170517504,1147.684822306037L1595.0741112884134,1117.561668343842Z" fill="#125224" stroke="#125224" fill-opacity="1" stroke-opacity="1"/><path d="M1602.7359712310135,1021.5768899023533L1595.0741112884134,1117.561668343842L1763.9687607809901,1131.1619592178613Z" fill="#124b17" stroke="#124b17" fill-opacity="1" stroke-opacity="1"/><path d="M1602.7359712310135,1021.5768899023533L1763.9687607809901,1131.1619592178613L1682.542379675433,960.6186968833208Z" fill="#12501d" stroke="#12501d" fill-opacity="1" stroke-opacity="1"/><path d="M1682.542379675433,960.6186968833208L1763.9687607809901,1131.1619592178613L1860.5279367696494,1008.8718955591321Z" fill="#124b14" stroke="#124b14" fill-opacity="1" stroke-opacity="1"/><path d="M1860.5279367696494,1008.8718955591321L1763.9687607809901,1131.1619592178613L1931.6663917712867,1114.8584042396396Z" fill="#124002" stroke="#124002" fill-opacity="1" stroke-opacity="1"/><path d="M43.748612590134144,1142.231199676171L354.4478486292064,1155.7626116741449L200.91050983406603,1088.283258927986Z" fill="#808976" stroke="#808976" fill-opacity="1" stroke-opacity="1"/><path d="M354.4478486292064,1155.7626116741449L1183.3640962466598,1155.3595239669085L827.5089477840811,1139.8095367010683Z" fill="#4f716a" stroke="#4f716a" fill-opacity="1" stroke-opacity="1"/><path d="M354.4478486292064,1155.7626116741449L827.5089477840811,1139.8095367010683L617.571709798649,1122.9846333526075Z" fill="#63796d" stroke="#63796d" fill-opacity="1" stroke-opacity="1"/><path d="M354.4478486292064,1155.7626116741449L617.571709798649,1122.9846333526075L564.8851029016078,1071.2447953037918Z" fill="#6a7f6f" stroke="#6a7f6f" fill-opacity="1" stroke-opacity="1"/><path d="M827.5089477840811,1139.8095367010683L1183.3640962466598,1155.3595239669085L974.248368870467,1074.2663145437837Z" fill="#366c5d" stroke="#366c5d" fill-opacity="1" stroke-opacity="1"/><path d="M1183.3640962466598,1155.3595239669085L1406.9226170517504,1147.684822306037L1295.9387853741646,1072.285592313856Z" fill="#1a5d3f" stroke="#1a5d3f" fill-opacity="1" stroke-opacity="1"/><path d="M1406.9226170517504,1147.684822306037L1763.9687607809901,1131.1619592178613L1595.0741112884134,1117.561668343842Z" fill="#124a1f" stroke="#124a1f" fill-opacity="1" stroke-opacity="1"/></g></svg>